<svg xmlns="http://www.w3.org/2000/svg" xmlns:xlink="http://www.w3.org/1999/xlink" width="1080" zoomAndPan="magnify" viewBox="0 0 810 809.999993" height="1080" preserveAspectRatio="xMidYMid meet" version="1.0"><defs><g/><clipPath id="8f029c8c68"><path d="M 209.644531 195.371094 L 235.871094 195.371094 L 235.871094 360.535156 L 209.644531 360.535156 Z M 209.644531 195.371094 " clip-rule="nonzero"/></clipPath><clipPath id="12fd75287d"><path d="M 222.757812 195.371094 C 230 195.371094 235.871094 201.242188 235.871094 208.484375 L 235.871094 347.410156 C 235.871094 354.65625 230 360.527344 222.757812 360.527344 C 215.515625 360.527344 209.644531 354.65625 209.644531 347.410156 L 209.644531 208.484375 C 209.644531 201.242188 215.515625 195.371094 222.757812 195.371094 Z M 222.757812 195.371094 " clip-rule="nonzero"/></clipPath><clipPath id="076960283f"><path d="M 0.644531 0.371094 L 26.871094 0.371094 L 26.871094 165.535156 L 0.644531 165.535156 Z M 0.644531 0.371094 " clip-rule="nonzero"/></clipPath><clipPath id="92e29968c3"><path d="M 13.757812 0.371094 C 21 0.371094 26.871094 6.242188 26.871094 13.484375 L 26.871094 152.410156 C 26.871094 159.65625 21 165.527344 13.757812 165.527344 C 6.515625 165.527344 0.644531 159.65625 0.644531 152.410156 L 0.644531 13.484375 C 0.644531 6.242188 6.515625 0.371094 13.757812 0.371094 Z M 13.757812 0.371094 " clip-rule="nonzero"/></clipPath><clipPath id="7b4e76744a"><rect x="0" width="27" y="0" height="166"/></clipPath><clipPath id="021320bc76"><path d="M 279.390625 156.761719 L 305.617188 156.761719 L 305.617188 398.5625 L 279.390625 398.5625 Z M 279.390625 156.761719 " clip-rule="nonzero"/></clipPath><clipPath id="1ae4cff1b3"><path d="M 292.503906 156.761719 C 299.746094 156.761719 305.617188 162.632812 305.617188 169.878906 L 305.617188 385.363281 C 305.617188 392.609375 299.746094 398.480469 292.503906 398.480469 C 285.261719 398.480469 279.390625 392.609375 279.390625 385.363281 L 279.390625 169.878906 C 279.390625 162.632812 285.261719 156.761719 292.503906 156.761719 Z M 292.503906 156.761719 " clip-rule="nonzero"/></clipPath><clipPath id="4a67f804e4"><path d="M 0.390625 0.761719 L 26.617188 0.761719 L 26.617188 242.5625 L 0.390625 242.5625 Z M 0.390625 0.761719 " clip-rule="nonzero"/></clipPath><clipPath id="f32e3c23b7"><path d="M 13.503906 0.761719 C 20.746094 0.761719 26.617188 6.632812 26.617188 13.878906 L 26.617188 229.363281 C 26.617188 236.609375 20.746094 242.480469 13.503906 242.480469 C 6.261719 242.480469 0.390625 236.609375 0.390625 229.363281 L 0.390625 13.878906 C 0.390625 6.632812 6.261719 0.761719 13.503906 0.761719 Z M 13.503906 0.761719 " clip-rule="nonzero"/></clipPath><clipPath id="13c8ab505d"><rect x="0" width="27" y="0" height="243"/></clipPath><clipPath id="af1c762e1e"><path d="M 488.578125 145.410156 L 514.804688 145.410156 L 514.804688 409.851562 L 488.578125 409.851562 Z M 488.578125 145.410156 " clip-rule="nonzero"/></clipPath><clipPath id="344f0cf954"><path d="M 501.691406 145.410156 C 508.933594 145.410156 514.804688 151.28125 514.804688 158.523438 L 514.804688 396.71875 C 514.804688 403.960938 508.933594 409.832031 501.691406 409.832031 C 494.449219 409.832031 488.578125 403.960938 488.578125 396.71875 L 488.578125 158.523438 C 488.578125 151.28125 494.449219 145.410156 501.691406 145.410156 Z M 501.691406 145.410156 " clip-rule="nonzero"/></clipPath><clipPath id="604ec08362"><path d="M 0.578125 0.410156 L 26.804688 0.410156 L 26.804688 264.851562 L 0.578125 264.851562 Z M 0.578125 0.410156 " clip-rule="nonzero"/></clipPath><clipPath id="a9a93fd4c3"><path d="M 13.691406 0.410156 C 20.933594 0.410156 26.804688 6.28125 26.804688 13.523438 L 26.804688 251.71875 C 26.804688 258.960938 20.933594 264.832031 13.691406 264.832031 C 6.449219 264.832031 0.578125 258.960938 0.578125 251.71875 L 0.578125 13.523438 C 0.578125 6.28125 6.449219 0.410156 13.691406 0.410156 Z M 13.691406 0.410156 " clip-rule="nonzero"/></clipPath><clipPath id="86c1dce98f"><rect x="0" width="27" y="0" height="265"/></clipPath><clipPath id="a791267541"><path d="M 349.117188 188.550781 L 375.347656 188.550781 L 375.347656 367.339844 L 349.117188 367.339844 Z M 349.117188 188.550781 " clip-rule="nonzero"/></clipPath><clipPath id="6ed0163369"><path d="M 362.234375 188.550781 C 369.476562 188.550781 375.347656 194.425781 375.347656 201.667969 L 375.347656 354.21875 C 375.347656 361.460938 369.476562 367.332031 362.234375 367.332031 C 354.988281 367.332031 349.117188 361.460938 349.117188 354.21875 L 349.117188 201.667969 C 349.117188 194.425781 354.988281 188.550781 362.234375 188.550781 Z M 362.234375 188.550781 " clip-rule="nonzero"/></clipPath><clipPath id="f3159c175a"><path d="M 0.117188 0.550781 L 26.347656 0.550781 L 26.347656 179.339844 L 0.117188 179.339844 Z M 0.117188 0.550781 " clip-rule="nonzero"/></clipPath><clipPath id="5e704956bf"><path d="M 13.234375 0.550781 C 20.476562 0.550781 26.347656 6.425781 26.347656 13.667969 L 26.347656 166.21875 C 26.347656 173.460938 20.476562 179.332031 13.234375 179.332031 C 5.988281 179.332031 0.117188 173.460938 0.117188 166.21875 L 0.117188 13.667969 C 0.117188 6.425781 5.988281 0.550781 13.234375 0.550781 Z M 13.234375 0.550781 " clip-rule="nonzero"/></clipPath><clipPath id="b3bfa4d944"><rect x="0" width="27" y="0" height="180"/></clipPath><clipPath id="554de354c0"><path d="M 418.847656 215.257812 L 445.078125 215.257812 L 445.078125 341.488281 L 418.847656 341.488281 Z M 418.847656 215.257812 " clip-rule="nonzero"/></clipPath><clipPath id="6995dc9fc7"><path d="M 431.960938 215.257812 C 439.203125 215.257812 445.078125 221.128906 445.078125 228.375 L 445.078125 328.367188 C 445.078125 335.613281 439.203125 341.484375 431.960938 341.484375 C 424.71875 341.484375 418.847656 335.613281 418.847656 328.367188 L 418.847656 228.375 C 418.847656 221.128906 424.71875 215.257812 431.960938 215.257812 Z M 431.960938 215.257812 " clip-rule="nonzero"/></clipPath><clipPath id="4f98f05627"><path d="M 0.847656 0.257812 L 27.078125 0.257812 L 27.078125 126.488281 L 0.847656 126.488281 Z M 0.847656 0.257812 " clip-rule="nonzero"/></clipPath><clipPath id="a895bf58b4"><path d="M 13.960938 0.257812 C 21.203125 0.257812 27.078125 6.128906 27.078125 13.375 L 27.078125 113.367188 C 27.078125 120.613281 21.203125 126.484375 13.960938 126.484375 C 6.71875 126.484375 0.847656 120.613281 0.847656 113.367188 L 0.847656 13.375 C 0.847656 6.128906 6.71875 0.257812 13.960938 0.257812 Z M 13.960938 0.257812 " clip-rule="nonzero"/></clipPath><clipPath id="df6db8d9ad"><rect x="0" width="28" y="0" height="127"/></clipPath><clipPath id="4045400c54"><path d="M 558.304688 181.191406 L 584.535156 181.191406 L 584.535156 374.941406 L 558.304688 374.941406 Z M 558.304688 181.191406 " clip-rule="nonzero"/></clipPath><clipPath id="52150c807b"><path d="M 571.421875 181.191406 C 578.664062 181.191406 584.535156 187.0625 584.535156 194.304688 L 584.535156 361.78125 C 584.535156 369.023438 578.664062 374.894531 571.421875 374.894531 C 564.175781 374.894531 558.304688 369.023438 558.304688 361.78125 L 558.304688 194.304688 C 558.304688 187.0625 564.175781 181.191406 571.421875 181.191406 Z M 571.421875 181.191406 " clip-rule="nonzero"/></clipPath><clipPath id="56af96f089"><path d="M 0.304688 0.191406 L 26.535156 0.191406 L 26.535156 193.941406 L 0.304688 193.941406 Z M 0.304688 0.191406 " clip-rule="nonzero"/></clipPath><clipPath id="a6e5a18155"><path d="M 13.421875 0.191406 C 20.664062 0.191406 26.535156 6.0625 26.535156 13.304688 L 26.535156 180.78125 C 26.535156 188.023438 20.664062 193.894531 13.421875 193.894531 C 6.175781 193.894531 0.304688 188.023438 0.304688 180.78125 L 0.304688 13.304688 C 0.304688 6.0625 6.175781 0.191406 13.421875 0.191406 Z M 13.421875 0.191406 " clip-rule="nonzero"/></clipPath><clipPath id="27a1ea61c7"><rect x="0" width="27" y="0" height="194"/></clipPath><clipPath id="123fb8d23e"><rect x="0" width="120" y="0" height="258"/></clipPath><clipPath id="e0d9f07581"><rect x="0" width="130" y="0" height="258"/></clipPath><clipPath id="50af8b122c"><rect x="0" width="45" y="0" height="258"/></clipPath><clipPath id="e32785b90b"><rect x="0" width="119" y="0" height="258"/></clipPath><clipPath id="647d872957"><rect x="0" width="97" y="0" height="258"/></clipPath><clipPath id="a7c70c676b"><path d="M 368.199219 455.53125 L 500.949219 455.53125 L 500.949219 588.28125 L 368.199219 588.28125 Z M 368.199219 455.53125 " clip-rule="nonzero"/></clipPath><clipPath id="c5bbbd52ea"><path d="M 434.589844 455.53125 C 397.921875 455.53125 368.199219 485.257812 368.199219 521.925781 C 368.199219 558.589844 397.921875 588.316406 434.589844 588.316406 C 471.257812 588.316406 500.984375 558.589844 500.984375 521.925781 C 500.984375 485.257812 471.257812 455.53125 434.589844 455.53125 Z M 434.589844 455.53125 " clip-rule="nonzero"/></clipPath></defs><g clip-path="url(#8f029c8c68)"><g clip-path="url(#12fd75287d)"><g transform="matrix(1, 0, 0, 1, 209, 195)"><g clip-path="url(#7b4e76744a)"><g clip-path="url(#076960283f)"><g clip-path="url(#92e29968c3)"><path fill="#022e69" d="M 0.644531 0.371094 L 26.871094 0.371094 L 26.871094 165.535156 L 0.644531 165.535156 Z M 0.644531 0.371094 " fill-opacity="1" fill-rule="nonzero"/></g></g></g></g></g></g><g clip-path="url(#021320bc76)"><g clip-path="url(#1ae4cff1b3)"><g transform="matrix(1, 0, 0, 1, 279, 156)"><g clip-path="url(#13c8ab505d)"><g clip-path="url(#4a67f804e4)"><g clip-path="url(#f32e3c23b7)"><path fill="#022e69" d="M 0.390625 0.761719 L 26.617188 0.761719 L 26.617188 242.460938 L 0.390625 242.460938 Z M 0.390625 0.761719 " fill-opacity="1" fill-rule="nonzero"/></g></g></g></g></g></g><g clip-path="url(#af1c762e1e)"><g clip-path="url(#344f0cf954)"><g transform="matrix(1, 0, 0, 1, 488, 145)"><g clip-path="url(#86c1dce98f)"><g clip-path="url(#604ec08362)"><g clip-path="url(#a9a93fd4c3)"><path fill="#022e69" d="M 0.578125 0.410156 L 26.804688 0.410156 L 26.804688 264.851562 L 0.578125 264.851562 Z M 0.578125 0.410156 " fill-opacity="1" fill-rule="nonzero"/></g></g></g></g></g></g><g clip-path="url(#a791267541)"><g clip-path="url(#6ed0163369)"><g transform="matrix(1, 0, 0, 1, 349, 188)"><g clip-path="url(#b3bfa4d944)"><g clip-path="url(#f3159c175a)"><g clip-path="url(#5e704956bf)"><path fill="#022e69" d="M 0.117188 0.550781 L 26.347656 0.550781 L 26.347656 179.339844 L 0.117188 179.339844 Z M 0.117188 0.550781 " fill-opacity="1" fill-rule="nonzero"/></g></g></g></g></g></g><g clip-path="url(#554de354c0)"><g clip-path="url(#6995dc9fc7)"><g transform="matrix(1, 0, 0, 1, 418, 215)"><g clip-path="url(#df6db8d9ad)"><g clip-path="url(#4f98f05627)"><g clip-path="url(#a895bf58b4)"><path fill="#022e69" d="M 0.847656 0.257812 L 27.078125 0.257812 L 27.078125 126.488281 L 0.847656 126.488281 Z M 0.847656 0.257812 " fill-opacity="1" fill-rule="nonzero"/></g></g></g></g></g></g><g clip-path="url(#4045400c54)"><g clip-path="url(#52150c807b)"><g transform="matrix(1, 0, 0, 1, 558, 181)"><g clip-path="url(#27a1ea61c7)"><g clip-path="url(#56af96f089)"><g clip-path="url(#a6e5a18155)"><path fill="#022e69" d="M 0.304688 0.191406 L 26.535156 0.191406 L 26.535156 193.941406 L 0.304688 193.941406 Z M 0.304688 0.191406 " fill-opacity="1" fill-rule="nonzero"/></g></g></g></g></g></g><g fill="#022e69" fill-opacity="1"><g transform="translate(88.035256, 654.079019)"><g><path d="M 12.5625 0.71875 C 19.070312 0.71875 22.886719 -2.960938 22.886719 -9.152344 L 22.886719 -31.949219 L 16.242188 -31.949219 L 16.242188 -9.0625 C 16.242188 -6.28125 15.03125 -5.027344 12.429688 -5.027344 C 9.828125 -5.027344 8.527344 -6.28125 8.527344 -9.0625 L 8.527344 -11.980469 L 2.242188 -11.980469 L 2.242188 -9.152344 C 2.242188 -2.960938 6.058594 0.71875 12.5625 0.71875 Z M 12.5625 0.71875 "/></g></g></g><g fill="#022e69" fill-opacity="1"><g transform="translate(125.728419, 654.079019)"><g><path d="M 16.648438 1.03125 C 25.171875 1.03125 31.90625 -5.652344 31.90625 -16.019531 C 31.90625 -26.339844 25.171875 -32.710938 16.648438 -32.710938 C 8.121094 -32.710938 1.570312 -26.339844 1.570312 -16.019531 C 1.570312 -5.609375 8.121094 1.03125 16.648438 1.03125 Z M 16.648438 -4.710938 C 11.398438 -4.710938 8.210938 -9.242188 8.210938 -16.019531 C 8.210938 -22.527344 11.398438 -26.96875 16.648438 -26.96875 C 21.898438 -26.96875 25.261719 -22.570312 25.261719 -16.019531 C 25.261719 -9.242188 21.898438 -4.710938 16.648438 -4.710938 Z M 16.648438 -4.710938 "/></g></g></g><g fill="#022e69" fill-opacity="1"><g transform="translate(171.094524, 654.079019)"><g><path d="M 22.121094 -17.367188 C 25.578125 -18.351562 27.328125 -20.820312 27.328125 -24.140625 C 27.328125 -29.03125 23.558594 -31.949219 17.769531 -31.949219 L 2.917969 -31.949219 L 2.917969 0 L 17.859375 0 C 24.816406 0 28.316406 -4.308594 28.316406 -9.378906 C 28.316406 -12.96875 26.609375 -16.199219 22.121094 -17.367188 Z M 16.601562 -26.566406 C 19.5625 -26.566406 20.820312 -25.171875 20.820312 -23.152344 C 20.820312 -21.179688 19.5625 -19.609375 16.332031 -19.609375 L 9.558594 -19.609375 L 9.558594 -26.566406 Z M 9.558594 -5.609375 L 9.558594 -14.222656 L 17.007812 -14.222656 C 20.058594 -14.222656 21.808594 -12.699219 21.808594 -10.007812 C 21.808594 -7.449219 20.238281 -5.609375 16.691406 -5.609375 Z M 9.558594 -5.609375 "/></g></g></g><g fill="#022e69" fill-opacity="1"><g transform="translate(213.367281, 654.079019)"><g/></g></g><g transform="matrix(1, 0, 0, 1, 70, 383)"><g clip-path="url(#123fb8d23e)"><g fill="#e99235" fill-opacity="1"><g transform="translate(0.987888, 201.46937)"><g><path d="M 58.359375 3.40625 C 49.734375 3.40625 42.21875 1.460938 35.8125 -2.421875 C 29.414062 -6.316406 24.476562 -11.914062 21 -19.21875 C 17.53125 -26.519531 15.796875 -35.132812 15.796875 -45.0625 L 15.796875 -128.921875 L 24.421875 -128.921875 L 24.421875 -42.921875 C 24.421875 -35.140625 25.796875 -28.375 28.546875 -22.625 C 31.304688 -16.875 35.226562 -12.472656 40.3125 -9.421875 C 45.394531 -6.367188 51.410156 -4.84375 58.359375 -4.84375 C 65.296875 -4.84375 71.28125 -6.398438 76.3125 -9.515625 C 81.34375 -12.628906 85.203125 -17.03125 87.890625 -22.71875 C 90.585938 -28.40625 91.9375 -35.019531 91.9375 -42.5625 L 91.9375 -128.921875 L 100.5625 -128.921875 L 100.5625 -45.0625 C 100.5625 -35.007812 98.820312 -26.332031 95.34375 -19.03125 C 91.875 -11.726562 86.96875 -6.160156 80.625 -2.328125 C 74.28125 1.492188 66.859375 3.40625 58.359375 3.40625 Z M 58.359375 3.40625 "/></g></g></g></g></g><g transform="matrix(1, 0, 0, 1, 185, 383)"><g clip-path="url(#e0d9f07581)"><g fill="#e99235" fill-opacity="1"><g transform="translate(0.223246, 201.46937)"><g><path d="M 102.53125 -128.921875 L 111.15625 -128.921875 L 111.15625 0 L 109.359375 0 L 24.953125 -107.015625 L 24.953125 0 L 16.515625 0 L 16.515625 -128.921875 L 18.140625 -128.921875 L 102.53125 -21.546875 Z M 102.53125 -128.921875 "/></g></g></g></g></g><g transform="matrix(1, 0, 0, 1, 312, 383)"><g clip-path="url(#50af8b122c)"><g fill="#e99235" fill-opacity="1"><g transform="translate(0.956439, 201.46937)"><g><path d="M 16.515625 -128.921875 L 24.953125 -128.921875 L 24.953125 0 L 16.515625 0 Z M 16.515625 -128.921875 "/></g></g></g></g></g><g transform="matrix(1, 0, 0, 1, 511, 383)"><g clip-path="url(#e32785b90b)"><g fill="#e99235" fill-opacity="1"><g transform="translate(0.406579, 201.46937)"><g><path d="M 58.359375 3.40625 C 49.734375 3.40625 42.21875 1.460938 35.8125 -2.421875 C 29.414062 -6.316406 24.476562 -11.914062 21 -19.21875 C 17.53125 -26.519531 15.796875 -35.132812 15.796875 -45.0625 L 15.796875 -128.921875 L 24.421875 -128.921875 L 24.421875 -42.921875 C 24.421875 -35.140625 25.796875 -28.375 28.546875 -22.625 C 31.304688 -16.875 35.226562 -12.472656 40.3125 -9.421875 C 45.394531 -6.367188 51.410156 -4.84375 58.359375 -4.84375 C 65.296875 -4.84375 71.28125 -6.398438 76.3125 -9.515625 C 81.34375 -12.628906 85.203125 -17.03125 87.890625 -22.71875 C 90.585938 -28.40625 91.9375 -35.019531 91.9375 -42.5625 L 91.9375 -128.921875 L 100.5625 -128.921875 L 100.5625 -45.0625 C 100.5625 -35.007812 98.820312 -26.332031 95.34375 -19.03125 C 91.875 -11.726562 86.96875 -6.160156 80.625 -2.328125 C 74.28125 1.492188 66.859375 3.40625 58.359375 3.40625 Z M 58.359375 3.40625 "/></g></g></g></g></g><g transform="matrix(1, 0, 0, 1, 624, 383)"><g clip-path="url(#647d872957)"><g fill="#e99235" fill-opacity="1"><g transform="translate(0.605373, 201.46937)"><g><path d="M 16.515625 -128.921875 L 83.3125 -128.921875 L 83.3125 -120.84375 L 24.953125 -120.84375 L 24.953125 -73.796875 L 83.140625 -73.796875 L 83.140625 -65.71875 L 24.953125 -65.71875 L 24.953125 -8.265625 L 83.3125 -8.265625 L 83.3125 0 L 16.515625 0 Z M 16.515625 -128.921875 "/></g></g></g></g></g><g fill="#022e69" fill-opacity="1"><g transform="translate(236.435367, 654.079019)"><g><path d="M 16.421875 1.03125 C 24.1875 1.03125 29.390625 -3.140625 29.929688 -10.457031 L 23.648438 -10.457031 C 23.152344 -7.402344 21.089844 -4.710938 16.828125 -4.710938 C 11.261719 -4.710938 8.210938 -9.242188 8.210938 -15.976562 C 8.210938 -22.480469 11.261719 -26.921875 16.828125 -26.921875 C 20.777344 -26.921875 23.109375 -24.726562 23.648438 -21.359375 L 29.976562 -21.359375 C 29.390625 -28.359375 24.320312 -32.667969 16.511719 -32.667969 C 7.988281 -32.667969 1.570312 -26.296875 1.570312 -15.976562 C 1.570312 -5.609375 7.898438 1.03125 16.421875 1.03125 Z M 16.421875 1.03125 "/></g></g></g><g fill="#022e69" fill-opacity="1"><g transform="translate(279.827195, 654.079019)"><g><path d="M 16.648438 1.03125 C 25.171875 1.03125 31.90625 -5.652344 31.90625 -16.019531 C 31.90625 -26.339844 25.171875 -32.710938 16.648438 -32.710938 C 8.121094 -32.710938 1.570312 -26.339844 1.570312 -16.019531 C 1.570312 -5.609375 8.121094 1.03125 16.648438 1.03125 Z M 16.648438 -4.710938 C 11.398438 -4.710938 8.210938 -9.242188 8.210938 -16.019531 C 8.210938 -22.527344 11.398438 -26.96875 16.648438 -26.96875 C 21.898438 -26.96875 25.261719 -22.570312 25.261719 -16.019531 C 25.261719 -9.242188 21.898438 -4.710938 16.648438 -4.710938 Z M 16.648438 -4.710938 "/></g></g></g><g fill="#022e69" fill-opacity="1"><g transform="translate(325.597185, 654.079019)"><g><path d="M 16.648438 1.03125 C 25.171875 1.03125 31.90625 -5.652344 31.90625 -16.019531 C 31.90625 -26.339844 25.171875 -32.710938 16.648438 -32.710938 C 8.121094 -32.710938 1.570312 -26.339844 1.570312 -16.019531 C 1.570312 -5.609375 8.121094 1.03125 16.648438 1.03125 Z M 16.648438 -4.710938 C 11.398438 -4.710938 8.210938 -9.242188 8.210938 -16.019531 C 8.210938 -22.527344 11.398438 -26.96875 16.648438 -26.96875 C 21.898438 -26.96875 25.261719 -22.570312 25.261719 -16.019531 C 25.261719 -9.242188 21.898438 -4.710938 16.648438 -4.710938 Z M 16.648438 -4.710938 "/></g></g></g><g fill="#022e69" fill-opacity="1"><g transform="translate(371.367176, 654.079019)"><g><path d="M 15.617188 -31.949219 L 2.917969 -31.949219 L 2.917969 0 L 9.558594 0 L 9.558594 -11.128906 L 15.03125 -11.128906 C 22.707031 -11.128906 26.742188 -15.167969 26.742188 -21.671875 C 26.742188 -28.089844 22.527344 -31.949219 15.617188 -31.949219 Z M 9.558594 -16.738281 L 9.558594 -26.339844 L 15.121094 -26.339844 C 18.171875 -26.339844 20.328125 -24.726562 20.328125 -21.582031 C 20.328125 -18.53125 18.351562 -16.738281 14.449219 -16.738281 Z M 9.558594 -16.738281 "/></g></g></g><g fill="#022e69" fill-opacity="1"><g transform="translate(411.07958, 654.079019)"><g><path d="M 9.558594 -13.640625 L 24.5 -13.640625 L 24.5 -19.5625 L 9.558594 -19.5625 L 9.558594 -26.027344 L 26.160156 -26.027344 L 26.160156 -31.949219 L 2.917969 -31.949219 L 2.917969 0 L 26.609375 0 L 26.609375 -5.921875 L 9.558594 -5.921875 Z M 9.558594 -13.640625 "/></g></g></g><g fill="#022e69" fill-opacity="1"><g transform="translate(528.961921, 654.079019)"><g><path d="M 0.898438 -31.949219 L 0.898438 -26.027344 L 10.5 -26.027344 L 10.5 0 L 17.140625 0 L 17.140625 -26.027344 L 26.699219 -26.027344 L 26.699219 -31.949219 Z M 0.898438 -31.949219 "/></g></g></g><g fill="#022e69" fill-opacity="1"><g transform="translate(568.270417, 654.079019)"><g><path d="M 9.558594 0 L 9.558594 -31.949219 L 2.917969 -31.949219 L 2.917969 0 Z M 9.558594 0 "/></g></g></g><g fill="#022e69" fill-opacity="1"><g transform="translate(592.457378, 654.079019)"><g><path d="M 16.648438 1.03125 C 25.171875 1.03125 31.90625 -5.652344 31.90625 -16.019531 C 31.90625 -26.339844 25.171875 -32.710938 16.648438 -32.710938 C 8.121094 -32.710938 1.570312 -26.339844 1.570312 -16.019531 C 1.570312 -5.609375 8.121094 1.03125 16.648438 1.03125 Z M 16.648438 -4.710938 C 11.398438 -4.710938 8.210938 -9.242188 8.210938 -16.019531 C 8.210938 -22.527344 11.398438 -26.96875 16.648438 -26.96875 C 21.898438 -26.96875 25.261719 -22.570312 25.261719 -16.019531 C 25.261719 -9.242188 21.898438 -4.710938 16.648438 -4.710938 Z M 16.648438 -4.710938 "/></g></g></g><g fill="#022e69" fill-opacity="1"><g transform="translate(637.643972, 654.079019)"><g><path d="M 22.078125 -17.949219 C 22.078125 -15.707031 22.121094 -13.417969 22.167969 -11.171875 C 21.136719 -12.96875 20.058594 -14.71875 18.9375 -16.511719 L 9.421875 -31.949219 L 2.917969 -31.949219 L 2.917969 0 L 9.558594 0 L 9.558594 -14 C 9.558594 -16.199219 9.558594 -18.488281 9.511719 -20.730469 C 10.636719 -18.847656 11.757812 -16.960938 12.921875 -15.078125 L 22.210938 0 L 28.71875 0 L 28.71875 -31.949219 L 22.078125 -31.949219 Z M 22.078125 -17.949219 "/></g></g></g><g fill="#022e69" fill-opacity="1"><g transform="translate(680.99086, 654.079019)"><g><path d="M 15.300781 1.03125 C 23.199219 1.03125 28 -2.828125 28 -9.019531 C 28 -14.359375 24.277344 -17.007812 19.296875 -18.21875 L 12.921875 -19.789062 C 10.457031 -20.417969 9.199219 -21.628906 9.199219 -23.378906 C 9.199219 -25.53125 11.082031 -27.238281 14.492188 -27.238281 C 17.992188 -27.238281 20.597656 -25.398438 21 -22.167969 L 27.460938 -22.167969 C 27.058594 -28.449219 22.167969 -32.667969 14.449219 -32.667969 C 6.238281 -32.667969 2.511719 -27.777344 2.511719 -22.660156 C 2.511719 -18.171875 5.382812 -15.03125 10.367188 -13.777344 L 16.242188 -12.296875 C 19.296875 -11.53125 21.136719 -10.679688 21.136719 -8.390625 C 21.136719 -5.878906 18.890625 -4.398438 15.257812 -4.398438 C 11.039062 -4.398438 8.4375 -6.371094 8.257812 -9.917969 L 1.75 -9.917969 C 1.929688 -3.007812 7.179688 1.03125 15.300781 1.03125 Z M 15.300781 1.03125 "/></g></g></g><g fill="#022e69" fill-opacity="1"><g transform="translate(722.461911, 654.079019)"><g/></g></g><g fill="#022e69" fill-opacity="1"><g transform="translate(451.338125, 654.079019)"><g><path d="M 21.808594 -15.347656 C 25.890625 -16.421875 27.910156 -19.070312 27.910156 -23.152344 C 27.910156 -27.6875 25.441406 -31.949219 17.8125 -31.949219 L 2.917969 -31.949219 L 2.917969 0 L 9.558594 0 L 9.558594 -12.386719 L 15.4375 -12.386719 C 18.890625 -12.386719 20.011719 -10.949219 20.28125 -8.210938 L 21.046875 0 L 27.867188 0 L 26.566406 -10.140625 C 26.296875 -12.25 25.53125 -14.582031 21.808594 -15.347656 Z M 9.558594 -26.386719 L 16.828125 -26.386719 C 20.101562 -26.386719 21.402344 -24.589844 21.402344 -22.257812 C 21.402344 -19.789062 19.921875 -17.769531 15.929688 -17.769531 L 9.558594 -17.769531 Z M 9.558594 -26.386719 "/></g></g></g><g fill="#022e69" fill-opacity="1"><g transform="translate(493.024737, 654.079019)"><g><path d="M 31.140625 0 L 20.101562 -31.949219 L 12.429688 -31.949219 L 1.121094 0 L 8.167969 0 L 10.320312 -6.640625 L 21.898438 -6.640625 L 24.050781 0 Z M 13.417969 -16.0625 L 16.152344 -25.261719 L 18.847656 -16.0625 L 20.148438 -12.117188 L 12.117188 -12.117188 Z M 13.417969 -16.0625 "/></g></g></g><g clip-path="url(#a7c70c676b)"><g clip-path="url(#c5bbbd52ea)"><path stroke-linecap="butt" transform="matrix(0.75, 0, 0, 0.75, 368.198656, 455.531517)" fill="none" stroke-linejoin="miter" d="M 88.521588 -0.00035611 C 39.63096 -0.00035611 0.000750098 39.635063 0.000750098 88.52569 C 0.000750098 137.411109 39.63096 177.046528 88.521588 177.046528 C 137.412215 177.046528 177.047634 137.411109 177.047634 88.52569 C 177.047634 39.635063 137.412215 -0.00035611 88.521588 -0.00035611 Z M 88.521588 -0.00035611 " stroke="#e99235" stroke-width="22" stroke-opacity="1" stroke-miterlimit="4"/></g></g><path stroke-linecap="butt" transform="matrix(0.53033, 0.53033, -0.53033, 0.53033, 459.888916, 545.101289)" fill="none" stroke-linejoin="miter" d="M 0.00186918 5.500822 L 68.024072 5.500822 " stroke="#e99235" stroke-width="11" stroke-opacity="1" stroke-miterlimit="4"/></svg>